<?xml version="1.0" encoding="utf-8"?>
<!-- Generator: Adobe Illustrator 23.0.0, SVG Export Plug-In . SVG Version: 6.00 Build 0)  -->
<svg version="1.1" id="Capa_1" xmlns="http://www.w3.org/2000/svg" xmlns:xlink="http://www.w3.org/1999/xlink" x="0px" y="0px"
	 viewBox="0 0 50 36.53" style="enable-background:new 0 0 50 36.53;" xml:space="preserve">
<style type="text/css">
	.st0{fill:#D58771;}
</style>
<g>
	<g>
		<path class="st0" d="M35.48,4.7L35.48,4.7c3.48,0,6.71,1.87,8.44,4.89c2.66,4.65,1.04,10.59-3.6,13.25l-14.73,8.43L9.99,23.08
			c-2.3-1.21-3.98-3.23-4.75-5.71s-0.53-5.1,0.68-7.4c1.68-3.2,4.98-5.19,8.6-5.19c1.58,0,3.09,0.38,4.51,1.12l4.21,2.21l1.94,1.02
			l1.9-1.09l3.58-2.05C32.14,5.14,33.8,4.7,35.48,4.7 M35.48,0.7c-2.31,0-4.65,0.58-6.8,1.82L25.1,4.56l-4.21-2.21
			c-2.04-1.07-4.22-1.58-6.37-1.58c-4.93,0-9.69,2.67-12.15,7.33c-3.52,6.7-0.94,14.99,5.76,18.51l17.53,9.21L42.3,26.3
			c6.57-3.76,8.85-12.14,5.08-18.71C44.85,3.18,40.23,0.7,35.48,0.7L35.48,0.7z"/>
	</g>
</g>
</svg>
